<?xml version="1.0" standalone="no"?>
<!DOCTYPE svg PUBLIC "-//W3C//DTD SVG 20010904//EN"
 "http://www.w3.org/TR/2001/REC-SVG-20010904/DTD/svg10.dtd">
<svg version="1.0" xmlns="http://www.w3.org/2000/svg"
 width="1171.000000pt" height="712.000000pt" viewBox="0 0 1171.000000 712.000000"
 preserveAspectRatio="xMidYMid meet">

<g transform="translate(0.000000,712.000000) scale(0.100000,-0.100000)"
fill="#000000" stroke="none">
<path d="M5054 7095 c-239 -43 -403 -168 -469 -356 -26 -73 -36 -178 -29 -298
l7 -114 85 7 c324 25 538 180 591 426 13 58 16 304 5 333 -8 21 -83 22 -190 2z"/>
<path d="M5427 7104 c-4 -4 -7 -567 -7 -1251 l0 -1243 205 0 205 0 0 1033 c0
586 4 1038 9 1046 7 11 32 13 128 8 267 -14 486 -107 655 -281 120 -122 201
-263 250 -431 23 -80 23 -81 26 -832 l3 -753 204 0 205 0 0 761 c0 735 -1 764
-21 862 -106 512 -497 915 -1024 1054 -98 26 -108 27 -465 30 -201 3 -369 1
-373 -3z"/>
<path d="M4568 6171 c-7 -2 -16 -8 -19 -13 -9 -13 -12 -2563 -3 -2638 l7 -62
521 5 c493 4 525 5 603 25 287 75 518 276 629 545 37 91 64 213 64 290 l0 67
-185 0 c-184 0 -185 0 -189 -22 -2 -13 -9 -52 -15 -87 -32 -195 -190 -365
-386 -416 -47 -12 -123 -15 -367 -15 l-309 0 1 1151 c1 787 -2 1155 -9 1162
-10 10 -315 17 -343 8z"/>
<path d="M7107 4225 c-143 -29 -271 -96 -349 -184 -51 -58 -104 -168 -119
-246 -11 -62 -9 -319 4 -331 12 -12 217 16 296 41 283 90 412 302 386 639 l-7
96 -71 -1 c-40 0 -103 -7 -140 -14z"/>
<path d="M2870 2603 c-134 -16 -240 -52 -330 -114 -114 -77 -190 -182 -237
-324 -24 -72 -27 -95 -27 -230 -1 -130 2 -160 22 -225 65 -209 211 -357 416
-422 90 -29 299 -36 400 -14 235 53 409 221 473 456 25 91 25 310 0 400 -62
231 -233 401 -457 453 -70 17 -204 27 -260 20z m181 -219 c134 -30 247 -136
293 -274 24 -73 32 -213 17 -292 -37 -188 -173 -321 -354 -347 -133 -19 -263
18 -353 101 -56 51 -83 92 -114 173 -20 50 -24 79 -24 180 -1 101 3 131 22
185 41 117 113 198 215 245 100 46 187 54 298 29z"/>
<path d="M5582 2603 c-12 -2 -33 -19 -46 -36 -12 -18 -154 -289 -315 -604
-292 -573 -306 -606 -281 -654 26 -48 136 -66 181 -30 13 10 58 87 99 170 l74
151 333 0 333 0 74 -149 c84 -167 106 -191 173 -191 76 0 123 36 123 95 0 14
-105 231 -234 483 -128 251 -265 520 -304 597 -39 77 -80 146 -91 152 -23 15
-86 23 -119 16z m166 -578 l112 -225 -230 0 c-127 0 -230 2 -230 5 0 10 225
445 230 445 3 0 56 -101 118 -225z"/>
<path d="M84 2579 c-16 -5 -41 -20 -55 -35 l-24 -26 0 -582 c0 -627 0 -621 52
-645 16 -8 165 -11 472 -11 l449 0 31 29 c43 41 44 95 0 137 l-30 29 -367 5
-367 5 -3 519 c-2 518 -2 520 -24 543 -12 13 -38 27 -57 33 -41 11 -36 11 -77
-1z"/>
<path d="M1190 2577 c-19 -7 -44 -27 -57 -46 l-23 -34 0 -564 c0 -505 2 -568
16 -593 37 -61 28 -60 524 -60 324 0 457 3 473 12 34 18 46 40 47 84 0 44 -24
78 -67 95 -13 5 -188 9 -394 9 l-369 0 0 170 0 170 333 0 c182 0 349 3 369 6
82 14 116 100 64 161 l-24 28 -369 5 -368 5 0 180 0 180 381 3 381 2 26 24
c66 61 37 155 -51 170 -72 12 -855 6 -892 -7z"/>
<path d="M3835 2575 c-50 -18 -72 -45 -80 -98 -3 -23 -5 -289 -3 -590 l3 -549
33 -29 c27 -25 41 -29 87 -29 46 0 60 4 87 29 l33 29 0 401 c0 220 3 397 6
393 4 -4 149 -190 323 -414 194 -250 328 -414 346 -423 41 -21 118 -19 154 4
57 38 55 19 56 643 l0 577 -22 26 c-42 48 -134 51 -190 6 l-23 -19 -5 -417 -5
-418 -329 427 c-186 242 -340 432 -355 440 -44 22 -74 25 -116 11z"/>
<path d="M6503 2580 c-17 -6 -41 -22 -52 -36 -21 -26 -21 -36 -21 -616 l0
-590 31 -29 c25 -23 40 -29 78 -29 37 0 99 23 113 42 1 2 4 89 7 193 l6 190
155 3 155 2 114 -122 c203 -219 291 -306 317 -311 87 -16 154 66 120 148 -8
19 -73 96 -146 172 -123 130 -129 138 -108 147 189 75 287 210 288 396 1 204
-140 370 -362 426 -76 19 -641 30 -695 14z m632 -221 c197 -61 250 -289 92
-396 -67 -45 -121 -53 -357 -53 l-210 0 0 235 0 235 204 0 c178 0 212 -3 271
-21z"/>
<path d="M7759 2581 c-46 -15 -69 -31 -84 -61 -13 -25 -15 -110 -15 -596 l0
-567 41 -39 41 -39 317 3 c312 4 317 4 383 30 156 59 260 152 328 293 95 194
94 457 -1 654 -72 148 -211 261 -375 307 -46 13 -118 17 -334 20 -151 2 -287
0 -301 -5z m514 -201 c157 -23 261 -120 315 -294 21 -68 21 -244 0 -312 -37
-121 -112 -215 -207 -261 -55 -27 -60 -28 -273 -31 l-218 -4 0 449 c0 248 3
453 7 456 10 11 299 8 376 -3z"/>
<path d="M9023 2579 c-17 -5 -41 -21 -52 -35 -21 -26 -21 -36 -21 -619 l0
-593 31 -26 c45 -38 122 -37 169 3 l35 29 0 590 0 590 -24 26 c-14 14 -41 30
-60 36 -41 11 -35 11 -78 -1z"/>
<path d="M9338 2583 c-41 -6 -78 -56 -78 -105 0 -30 7 -46 29 -69 l29 -29 216
0 215 0 3 -521 3 -521 33 -29 c27 -24 41 -29 83 -29 45 0 55 4 85 34 l34 34 0
516 0 516 211 0 c135 0 218 4 232 11 64 33 77 112 27 159 -16 15 -46 30 -67
34 -41 6 -1010 6 -1055 -1z"/>
<path d="M10720 2577 c-19 -7 -44 -27 -57 -46 l-23 -34 0 -564 c0 -505 2 -568
16 -593 37 -61 28 -60 524 -60 324 0 457 3 473 12 34 18 46 40 47 84 0 44 -24
78 -67 95 -13 5 -188 9 -394 9 l-369 0 0 170 0 170 333 0 c182 0 349 3 369 6
82 14 116 100 64 161 l-24 28 -369 5 -368 5 0 180 0 180 381 3 381 2 26 24
c66 61 37 155 -51 170 -72 12 -855 6 -892 -7z"/>
<path d="M2285 336 c-42 -18 -83 -69 -91 -112 -23 -124 41 -217 150 -217 102
0 162 72 154 185 -5 61 -23 96 -70 131 -33 25 -104 31 -143 13z m99 -48 c54
-24 78 -100 52 -163 -21 -50 -42 -64 -93 -65 -51 0 -77 21 -93 77 -17 57 1
118 43 143 37 23 56 25 91 8z"/>
<path d="M3235 336 c-42 -18 -83 -69 -91 -112 -22 -121 40 -215 144 -217 31 0
59 6 75 16 22 14 26 14 31 2 3 -8 15 -15 26 -15 19 0 20 6 20 90 l0 90 -80 0
c-79 0 -80 0 -80 -25 0 -24 3 -25 55 -25 30 0 55 -2 55 -5 0 -4 -7 -19 -15
-35 -18 -34 -65 -51 -110 -38 -82 22 -97 172 -22 218 18 11 40 20 50 20 32 0
77 -30 83 -55 5 -20 13 -25 36 -25 26 0 29 3 23 23 -25 84 -119 128 -200 93z"/>
<path d="M4904 336 c-114 -50 -123 -255 -13 -311 90 -47 197 0 216 95 5 27 3
30 -21 30 -20 0 -29 -7 -37 -27 -18 -48 -39 -63 -85 -63 -35 0 -47 5 -68 31
-21 25 -26 41 -26 86 0 49 4 59 34 89 49 49 111 42 141 -16 12 -23 22 -30 38
-28 43 6 7 79 -54 110 -40 21 -82 22 -125 4z"/>
<path d="M2690 175 l0 -165 30 0 30 0 0 70 0 70 48 -1 c76 -1 85 -8 97 -75
l10 -59 40 -3 c38 -3 39 -3 22 16 -9 10 -17 34 -17 53 0 19 -7 47 -15 62 -13
26 -13 31 0 50 15 22 20 73 9 102 -12 32 -59 45 -159 45 l-95 0 0 -165z m194
99 c19 -18 21 -45 4 -62 -7 -7 -39 -12 -75 -12 l-63 0 0 45 0 45 59 0 c41 0
65 -5 75 -16z"/>
<path d="M3668 174 l-67 -165 31 3 c26 3 33 10 48 48 l18 45 59 3 60 3 21 -51
c18 -44 24 -50 50 -50 l30 0 -66 165 c-62 155 -67 165 -92 165 -25 0 -30 -10
-92 -166z m115 31 l16 -45 -41 0 c-34 0 -39 3 -33 18 4 9 12 29 17 45 14 38
24 34 41 -18z"/>
<path d="M4080 175 l0 -165 30 0 29 0 3 112 3 111 76 -109 c60 -87 81 -110
102 -112 l27 -3 0 165 0 166 -25 0 -25 0 0 -111 c0 -63 -4 -108 -9 -105 -5 3
-41 53 -81 111 -63 93 -74 105 -101 105 l-29 0 0 -165z"/>
<path d="M4560 175 l0 -165 30 0 30 0 0 165 0 165 -30 0 -30 0 0 -165z"/>
<path d="M5590 175 l0 -165 30 0 30 0 0 75 0 75 70 0 c68 0 70 1 70 25 0 24
-2 25 -70 25 l-70 0 0 40 0 40 80 0 c79 0 80 0 80 25 l0 25 -110 0 -110 0 0
-165z"/>
<path d="M6000 175 l0 -165 115 0 115 0 0 25 c0 25 -1 25 -90 25 l-90 0 0 50
0 50 85 0 c84 0 85 0 85 25 0 25 -1 25 -85 25 l-85 0 0 40 0 40 90 0 c89 0 90
0 90 25 l0 25 -115 0 -115 0 0 -165z"/>
<path d="M6420 175 l0 -165 30 0 30 0 0 71 0 71 61 -4 c66 -5 79 -15 79 -63 1
-61 10 -75 47 -75 27 0 33 3 26 13 -6 6 -13 37 -17 67 -4 30 -12 60 -18 67 -7
8 -5 19 6 35 26 36 20 85 -13 119 -29 28 -32 29 -130 29 l-101 0 0 -165z m186
107 c6 -4 14 -17 18 -28 11 -36 -17 -54 -85 -54 l-59 0 0 45 0 45 58 0 c31 0
62 -4 68 -8z"/>
<path d="M6850 315 c0 -24 3 -25 55 -25 l55 0 0 -140 0 -140 25 0 25 0 0 140
0 140 55 0 c52 0 55 1 55 25 l0 25 -135 0 -135 0 0 -25z"/>
<path d="M7300 175 l0 -165 25 0 25 0 0 165 0 165 -25 0 -25 0 0 -165z"/>
<path d="M7560 175 l0 -165 115 0 115 0 0 25 c0 25 -1 25 -85 25 l-85 0 0 140
0 140 -30 0 -30 0 0 -165z"/>
<path d="M7970 175 l0 -165 25 0 25 0 0 165 0 165 -25 0 -25 0 0 -165z"/>
<path d="M8220 315 c0 -25 1 -25 85 -25 l86 0 -96 -119 c-53 -66 -95 -128 -95
-140 0 -20 4 -21 135 -21 l135 0 0 25 c0 24 -1 24 -96 27 l-95 3 90 115 c53
67 91 124 91 138 0 22 -2 22 -120 22 l-120 0 0 -25z"/>
<path d="M8650 175 l0 -165 120 0 120 0 0 25 c0 25 -1 25 -90 25 l-90 0 0 50
0 50 86 0 c83 0 85 1 82 23 -3 20 -9 22 -85 25 l-83 3 0 39 0 40 90 0 c89 0
90 0 90 25 l0 25 -120 0 -120 0 0 -165z"/>
<path d="M9080 175 l0 -165 25 0 c24 0 25 2 25 70 l0 70 53 0 c71 0 87 -14 95
-80 l7 -55 39 -3 c38 -3 38 -3 22 20 -9 12 -16 38 -16 58 -1 19 -7 46 -15 60
-12 22 -11 27 1 41 17 19 21 62 10 97 -12 37 -56 52 -156 52 l-90 0 0 -165z
m181 105 c21 -12 25 -50 7 -68 -7 -7 -39 -12 -75 -12 l-63 0 0 45 0 45 56 0
c30 0 64 -5 75 -10z"/>
</g>
</svg>
