<svg xmlns="http://www.w3.org/2000/svg" width="512" height="512" fill="none"><path fill="#E92B2B" d="M32 96h448v320H32z"/><path fill="#FBFBFB" d="M32 336h448v40H32zM32 256h448v40H32zM32 176h448v40H32zM32 96h448v40H32z"/><path fill="#2A2FAF" d="M32 96h208v160H32z"/><path fill="#FBFBFB" d="m63.998 112 3.592 11.056h11.625l-9.404 6.833 3.592 11.055-9.405-6.833-9.404 6.833 3.592-11.055-9.405-6.833h11.625zM63.998 160l3.592 11.056h11.625l-9.404 6.833 3.592 11.055-9.405-6.833-9.404 6.833 3.592-11.055-9.405-6.833h11.625zM63.998 208l3.592 11.056h11.625l-9.404 6.833 3.592 11.055-9.405-6.833-9.404 6.833 3.592-11.055-9.405-6.833h11.625zM111.998 112l3.592 11.056h11.625l-9.405 6.833 3.593 11.055-9.405-6.833-9.404 6.833 3.592-11.055-9.405-6.833h11.625zM111.998 160l3.592 11.056h11.625l-9.405 6.833 3.593 11.055-9.405-6.833-9.404 6.833 3.592-11.055-9.405-6.833h11.625zM111.998 208l3.592 11.056h11.625l-9.405 6.833 3.593 11.055-9.405-6.833-9.404 6.833 3.592-11.055-9.405-6.833h11.625zM159.998 112l3.592 11.056h11.625l-9.405 6.833 3.593 11.055-9.405-6.833-9.404 6.833 3.592-11.055-9.405-6.833h11.625zM159.998 160l3.592 11.056h11.625l-9.405 6.833 3.593 11.055-9.405-6.833-9.404 6.833 3.592-11.055-9.405-6.833h11.625zM159.998 208l3.592 11.056h11.625l-9.405 6.833 3.593 11.055-9.405-6.833-9.404 6.833 3.592-11.055-9.405-6.833h11.625zM207.998 112l3.592 11.056h11.625l-9.405 6.833 3.593 11.055-9.405-6.833-9.404 6.833 3.592-11.055-9.405-6.833h11.625zM207.998 160l3.592 11.056h11.625l-9.405 6.833 3.593 11.055-9.405-6.833-9.404 6.833 3.592-11.055-9.405-6.833h11.625zM207.998 208l3.592 11.056h11.625l-9.405 6.833 3.593 11.055-9.405-6.833-9.404 6.833 3.592-11.055-9.405-6.833h11.625z"/></svg>